<svg width="184" height="55" viewBox="0 0 184 55" fill="none" xmlns="http://www.w3.org/2000/svg">
<path d="M50.3557 34.7355C47.3656 34.7355 44.5638 33.4691 42.0182 31.4075L42.6381 28.4972L42.665 28.3893C43.217 25.2906 44.9681 20.0894 50.3557 20.0894C54.3961 20.0894 57.6826 23.3771 57.6826 27.4191C57.669 31.4478 54.3828 34.7355 50.3557 34.7355V34.7355ZM50.3557 12.6654C43.4728 12.6654 38.1395 17.1388 35.9712 24.4955C32.6577 19.5236 30.1524 13.5548 28.6845 8.52895H21.2767V27.8099C21.2767 31.6095 18.1788 34.7082 14.3806 34.7082C10.5823 34.7082 7.48482 31.6095 7.48482 27.8099V8.52895H0.0762869V27.8099C0.0493363 35.7058 6.474 42.1864 14.3666 42.1864C22.2595 42.1864 28.6842 35.7058 28.6842 27.8099V24.5764C30.1251 27.5809 31.8895 30.6123 34.0311 33.3073L29.492 54.6495H37.0751L40.3613 39.1683C43.2436 41.0142 46.5571 42.1731 50.3553 42.1731C58.4768 42.1731 65.0901 35.517 65.0901 27.3921C65.0901 19.2809 58.4768 12.6654 50.3553 12.6654H50.3557Z" fill="#6FDA44"/>
<path d="M87.7034 13.5009L92.4848 32.7818L97.7513 13.5009H104.028L95.933 41.3647H89.6564L84.6867 21.9623L79.73 41.351H73.4537L65.3585 13.4876H71.6351L76.9012 32.7685L81.6826 13.4876H87.703V13.5012L87.7034 13.5009ZM119.045 12.6655C110.897 12.6655 104.297 19.2809 104.297 27.4191C104.297 35.571 110.91 42.1731 119.045 42.1731C127.194 42.1731 133.807 35.571 133.807 27.4191C133.807 19.2676 127.194 12.6655 119.045 12.6655ZM119.045 36.1098C114.25 36.1098 110.371 32.2293 110.371 27.4328C110.371 22.6359 114.264 18.7557 119.045 18.7557C123.84 18.7557 127.719 22.6359 127.719 27.4328C127.719 32.216 123.84 36.1098 119.045 36.1098ZM151.734 19.7393C147.518 19.7393 144.111 23.1615 144.111 27.3652V41.351H137.793V13.5009H144.111V17.7855C144.111 17.7855 146.804 13.4872 152.34 13.4872H154.279V19.7393H151.734V19.7393ZM172.934 26.3414C177.418 23.8082 180.463 18.998 180.463 13.4872H174.145C174.145 18.1356 170.374 21.9083 165.728 21.9083H164.879V0.0539246H158.563V41.3507H164.879V28.2276H165.634C166.253 28.2276 167.061 28.632 167.425 29.1302L176.395 41.351H183.964L172.934 26.3414V26.3414Z" fill="black"/>
</svg>
