<svg width="173" height="52" viewBox="0 0 173 52" fill="none" xmlns="http://www.w3.org/2000/svg">
<g clip-path="url(#clip0)">
<path d="M158.62 24.9252H152.499C148.559 24.9252 146.448 27.8661 146.448 32.7669V50.483H134.839V24.9234H129.913C125.972 24.9234 123.863 27.8643 123.863 32.7651V50.4813H112.252V15.4719H123.863V20.7938C125.764 16.6624 128.367 15.4719 132.238 15.4719H146.45V20.7938C148.35 16.6624 150.954 15.4719 154.825 15.4719H158.622V24.9252H158.62ZM109.718 35.7077H85.5144C86.1474 39.6295 88.6097 41.8702 92.7605 41.8702C95.8558 41.8702 98.0381 40.6086 98.7424 38.3696L109.014 41.2394C106.482 47.3307 100.219 51.0428 92.7605 51.0428C80.1655 51.0428 74.3957 41.3087 74.3957 32.9783C74.3957 24.7866 79.4612 14.9832 92.0562 14.9832C105.425 14.9832 109.858 24.9252 109.858 32.2782C109.866 33.423 109.82 34.5674 109.718 35.7077V35.7077ZM98.4607 28.9162C98.179 25.9043 95.9966 23.1056 92.058 23.1056C88.3975 23.1056 86.2187 24.7138 85.5144 28.9162H98.4607ZM54.1338 50.4813H64.3343L77.0702 15.4754H65.3916L59.1993 35.8481L52.8661 15.4736H41.2553L54.1338 50.4813ZM6.56908 50.4813H18.1086V24.9252H29.0882V50.483H40.5564V15.4736H18.1086V13.304C18.1086 10.9229 19.7971 9.45335 22.4715 9.45335H29.0864V-9.53674e-07H20.5727C12.198 -9.53674e-07 6.56908 5.11227 6.56908 12.6021V15.4736H0.0255127V24.927H6.56908V50.4813Z" fill="#003912"/>
<path d="M165.798 51.5314C169.762 51.5314 172.975 48.3329 172.975 44.3881C172.975 40.4433 169.762 37.2466 165.798 37.2466C161.835 37.2466 158.62 40.4451 158.62 44.3899C158.62 48.3347 161.835 51.5314 165.798 51.5314Z" fill="#1DBF73"/>
</g>
<defs>
<clipPath id="clip0">
<rect width="173" height="52" fill="white"/>
</clipPath>
</defs>
</svg>
