<svg width="211" height="40" viewBox="0 0 211 40" fill="none" xmlns="http://www.w3.org/2000/svg">
<path d="M18.1596 0C19.9585 0 21.619 0.142751 23.1411 0.565351C24.6632 0.848027 25.9086 1.41338 27.0156 2.12007C28.1226 2.82676 28.9528 3.81612 29.5063 5.08957C30.0599 6.3602 30.3366 7.91633 30.3366 9.61238C30.3366 11.5897 29.9215 13.2872 28.9528 14.5592C28.1226 15.8298 26.7388 16.9605 25.0783 17.8086C27.4307 18.5152 29.2296 19.7859 30.3366 21.4833C31.4436 23.1794 32.1355 25.2995 32.1355 27.7022C32.1355 29.6795 31.7204 31.377 31.0285 32.7904C30.3366 34.2037 29.2296 35.4758 27.9842 36.3238C26.7388 37.1732 25.2167 37.8799 23.5562 38.3025C21.8957 38.7251 20.2352 39.0092 18.5747 39.0092H0.0324039V0H18.1596ZM17.0526 15.8298C18.5747 15.8298 19.8201 15.4058 20.7887 14.6991C21.7573 13.9924 22.1725 12.7204 22.1725 11.1657C22.1725 10.3177 22.0341 9.46963 21.7573 8.90428C21.4806 8.33893 21.0655 7.91491 20.512 7.4909C19.9585 7.20823 19.405 6.92555 18.7131 6.78421C18.0212 6.64287 17.3293 6.64287 16.4991 6.64287H8.4733V15.8298H17.0526ZM17.4677 32.5077C18.2979 32.5077 19.1282 32.3663 19.8201 32.2264C20.512 32.0837 21.2038 31.801 21.7573 31.377C22.3108 30.953 22.726 30.529 23.1411 29.8223C23.4178 29.1156 23.6946 28.2661 23.6946 27.2782C23.6946 25.2995 23.1411 23.8861 22.0341 22.8953C20.9271 22.0473 19.405 21.6247 17.6061 21.6247H8.4733V32.5077H17.4677ZM44.1741 32.3663C45.2811 33.497 46.9416 34.0624 49.1556 34.0624C50.6778 34.0624 52.0615 33.6384 53.1685 32.9317C54.2755 32.0823 54.9674 31.2356 55.2442 30.3862H62.0246C60.9175 33.7783 59.257 36.1825 57.043 37.7358C54.829 39.1491 52.1999 39.9986 49.0173 39.9986C46.8033 39.9986 44.866 39.5732 43.0671 38.8665C41.2683 38.1598 39.8845 37.1718 38.6391 35.7585C37.3937 34.4864 36.4251 32.9317 35.8716 31.0929C35.1797 29.2555 34.903 27.2782 34.903 25.0154C34.903 22.8953 35.1797 20.918 35.8716 19.0792C36.5635 17.2418 37.5321 15.6885 38.7775 14.2751C40.0229 13.0031 41.545 11.8724 43.2055 11.1657C45.0044 10.459 46.8033 10.035 49.0173 10.035C51.3697 10.035 53.4453 10.459 55.2442 11.4484C57.043 12.4377 58.4268 13.5684 59.5338 15.2645C60.6408 16.8192 61.4711 18.6552 62.0246 20.6353C62.3013 22.614 62.4397 24.5928 62.3013 26.8542H42.2369C42.2369 29.1156 43.0671 31.2356 44.1741 32.3663ZM52.8918 17.5259C51.9232 16.5365 50.401 15.9712 48.6021 15.9712C47.3568 15.9712 46.3881 16.2524 45.5579 16.6779C44.7276 17.1019 44.1741 17.6658 43.6206 18.2326C43.0671 18.7993 42.7904 19.5046 42.652 20.2113C42.5136 20.918 42.3753 21.4819 42.3753 22.0487H54.829C54.5523 19.9286 53.8604 18.5152 52.8918 17.5259ZM73.0946 0V14.6991H73.233C74.2016 13.0031 75.447 11.8724 76.9691 11.1657C78.4912 10.459 79.875 10.035 81.3971 10.035C83.4727 10.035 85.1332 10.3177 86.3786 10.883C87.624 11.4484 88.731 12.2964 89.4229 13.2857C90.1147 14.2751 90.6682 15.5472 90.945 16.9605C91.2217 18.3739 91.3601 19.93 91.3601 21.766V39.1506H83.7495V23.1794C83.7495 20.7767 83.3344 19.0806 82.6425 17.9499C81.9506 16.8192 80.7052 16.2538 78.9063 16.2538C76.8307 16.2538 75.3086 16.9605 74.4783 18.0926C73.5097 19.3633 73.0946 21.4833 73.0946 24.3101V39.1506H65.4839V0H73.0946ZM96.8951 14.9818C97.7254 13.7098 98.694 12.8617 99.9394 12.0123C101.185 11.3056 102.569 10.7417 104.091 10.4576C105.613 10.1749 107.134 10.0336 108.657 10.0336C110.041 10.0336 111.425 10.1749 112.948 10.3162C114.332 10.4576 115.716 10.8802 116.821 11.4469C118.067 12.0109 118.897 12.8603 119.728 13.8497C120.419 14.8405 120.834 16.2538 120.834 17.9499V32.7904C120.834 34.0624 120.972 35.3344 121.111 36.4666C121.251 37.5973 121.663 38.5866 122.079 39.1506H114.33C114.052 38.8679 113.914 38.3025 113.777 37.8799C113.639 37.4545 113.639 36.8906 113.639 36.4666C112.393 37.7372 111.009 38.5866 109.349 39.1506C107.688 39.7159 106.028 39.8572 104.367 39.8572C102.984 39.8572 101.877 39.7159 100.631 39.2933C99.5243 39.0106 98.5556 38.4439 97.587 37.7372C96.7568 37.0305 96.0649 36.1825 95.5114 35.0532C95.0963 33.9211 94.8195 32.7904 94.8195 31.2356C94.8195 29.6795 95.0963 28.2661 95.6498 27.2782C96.2033 26.2888 96.8951 25.4408 97.7254 24.7341C98.5556 24.1702 99.6626 23.6034 100.77 23.3207C101.877 23.0395 102.984 22.7568 104.229 22.614L107.55 22.19C108.657 22.0487 109.626 21.9074 110.456 21.766C111.286 21.4833 111.978 21.2007 112.532 20.7766C113.085 20.3526 113.223 19.7873 113.223 18.9393C113.223 18.0912 113.085 17.3845 112.808 16.9605C112.532 16.5365 112.116 16.1125 111.701 15.8298C111.285 15.5472 110.733 15.4058 110.179 15.2659C109.626 15.1231 108.934 15.1231 108.242 15.1231C106.72 15.1231 105.613 15.4058 104.783 16.1125C103.952 16.8192 103.399 17.9499 103.26 19.3633H95.6498C95.6498 17.6672 96.2033 16.1125 96.8951 14.9818ZM111.977 26.0061C111.563 26.1475 111.009 26.2888 110.455 26.4302C109.901 26.5729 109.348 26.5729 108.656 26.7128C108.104 26.8542 107.412 26.8542 106.857 26.9955L105.196 27.4195C104.643 27.5609 104.089 27.8435 103.813 28.1262C103.397 28.4089 103.121 28.8329 102.844 29.2569C102.43 29.8223 102.43 30.3876 102.43 31.0943C102.43 31.801 102.569 32.3663 102.845 32.7904C103.122 33.2144 103.399 33.6398 103.814 33.9211C104.229 34.2037 104.783 34.3465 105.336 34.4864C105.89 34.6263 106.442 34.6278 107.134 34.6278C108.657 34.6278 109.763 34.3465 110.593 33.9211C111.425 33.3571 111.977 32.7904 112.393 32.0837C112.808 31.377 113.085 30.6703 113.085 29.9636C113.223 29.2569 113.223 28.693 113.223 28.2676V25.2995C112.808 25.5821 112.393 25.8662 111.977 26.0061ZM132.321 10.7417V14.6991H132.459C133.426 13.0031 134.673 11.8724 136.194 11.1657C137.717 10.459 139.378 10.035 140.898 10.035C142.974 10.035 144.635 10.3177 145.88 10.883C147.264 11.4484 148.234 12.2964 148.926 13.2857C149.618 14.2751 150.17 15.5472 150.585 16.9605C150.862 18.3739 151.001 19.93 151.001 21.766V39.1506H143.391V23.1794C143.391 20.7767 142.974 19.0806 142.282 17.9499C141.59 16.8192 140.345 16.1125 138.408 16.1125C136.332 16.1125 134.809 16.9605 133.841 18.2326C132.873 19.5046 132.458 21.6247 132.458 24.4514V39.2919H124.847V10.7417H132.321ZM168.019 15.8298C166.775 15.8298 165.805 16.1125 164.976 16.6793C164.146 17.2432 163.454 17.9499 162.9 18.9407C162.347 19.7887 162.07 20.7781 161.792 21.9088C161.516 23.0409 161.516 24.0288 161.516 25.1609C161.516 26.1489 161.655 27.281 161.792 28.269C162.07 29.4011 162.345 30.2477 162.9 31.0957C163.454 31.9452 164.007 32.6518 164.837 33.2158C165.668 33.7811 166.635 34.0652 167.88 34.0652C169.681 34.0652 171.064 33.4999 172.17 32.5091C173.14 31.5211 173.832 30.1078 173.97 28.269H181.304C180.752 32.0851 179.368 34.9118 177.013 36.892C174.662 38.8693 171.618 39.8601 167.88 39.8601C165.805 39.8601 163.867 39.4361 162.207 38.7294C160.407 38.0227 159.023 37.0333 157.779 35.7613C156.535 34.4892 155.564 32.9345 154.872 31.2385C154.18 29.4011 153.904 27.5623 153.904 25.4422C153.904 23.1808 154.18 21.2021 154.872 19.3647C155.564 17.5273 156.395 15.8312 157.639 14.4179C158.885 13.0045 160.407 12.0151 162.069 11.1671C163.866 10.4604 165.803 10.0364 168.017 10.0364C169.679 10.0364 171.201 10.3191 172.722 10.7431C174.243 11.1671 175.628 11.8738 176.735 12.7204C177.98 13.5698 178.949 14.6991 179.641 16.1125C180.333 17.3845 180.749 19.0806 180.886 20.918H173.414C173.141 17.5259 171.341 15.8298 168.019 15.8298ZM40.7147 2.68542H56.2128V6.50154H40.7147V2.68542ZM192.789 32.3663C193.898 33.497 195.695 34.0624 197.771 34.0624C199.294 34.0624 200.678 33.6384 201.784 32.9317C202.892 32.0823 203.584 31.2356 203.859 30.3862H210.503C209.394 33.7783 207.735 36.1825 205.52 37.7358C203.304 39.1491 200.677 39.9986 197.494 39.9986C195.28 39.9986 193.343 39.5732 191.542 38.8665C189.839 38.2178 188.319 37.1503 187.116 35.7585C185.87 34.4864 184.902 32.9317 184.348 31.0929C183.656 29.2555 183.38 27.2782 183.38 25.0154C183.38 22.8953 183.656 20.918 184.348 19.0792C185.015 17.3066 186 15.6771 187.254 14.2751C188.5 13.0031 190.022 11.8724 191.682 11.1657C193.481 10.459 195.418 10.035 197.494 10.035C199.845 10.035 201.921 10.459 203.583 11.4484C205.38 12.4377 206.764 13.5684 207.872 15.2645C208.979 16.8192 209.809 18.6552 210.363 20.6353C210.915 22.6126 211.055 24.7327 210.915 26.9955H190.851C190.851 29.1156 191.682 31.2356 192.789 32.3663ZM201.645 17.5259C200.677 16.5365 199.153 15.9712 197.356 15.9712C196.11 15.9712 195.14 16.2524 194.31 16.6779C193.48 17.1019 192.788 17.6658 192.374 18.2326C191.96 18.7993 191.542 19.5046 191.405 20.2113C191.269 20.918 191.13 21.4819 191.13 22.0487H203.584C203.167 19.9286 202.476 18.5152 201.645 17.5259Z" fill="black"/>
</svg>
