<svg width="191" height="51" viewBox="0 0 191 51" fill="none" xmlns="http://www.w3.org/2000/svg">
<g clip-path="url(#clip0)">
<path d="M140.714 3.65337C140.714 1.63673 142.378 9.53674e-07 144.429 9.53674e-07H187.258C189.31 9.53674e-07 190.973 1.63673 190.973 3.65337V47.3473C190.973 49.3646 189.31 51 187.258 51H144.429C142.378 51 140.714 49.3646 140.714 47.348V3.6527V3.65337Z" fill="#006699"/>
<path d="M0.0262375 42.7201H21.0004V35.7758H7.61793V9.28525H0.0262375V42.7201ZM31.6195 42.7201V19.6909H24.0285V42.7201H31.6195ZM27.8246 16.5472C30.4713 16.5472 32.119 14.7787 32.119 12.5674C32.0699 10.308 30.4713 8.58963 27.8751 8.58963C25.2782 8.58963 23.5801 10.3086 23.5801 12.5674C23.5801 14.7787 25.2277 16.5472 27.7749 16.5472H27.8246V16.5472ZM35.1437 42.7201H42.7347V29.859C42.7347 29.1708 42.7838 28.4825 42.9848 27.9922C43.5327 26.617 44.7817 25.1923 46.8792 25.1923C49.6266 25.1923 50.7257 27.3046 50.7257 30.3988V42.7194H58.3155V29.5152C58.3155 22.4413 54.5703 19.1497 49.5756 19.1497C45.4809 19.1497 43.6826 21.458 42.6837 23.0305H42.7347V19.6909H35.1437C35.2439 21.852 35.1437 42.7201 35.1437 42.7201V42.7201ZM69.0247 9.28525H61.4337V42.7201H69.0247V35.2535L70.9218 32.8449L76.8652 42.7201H86.2034L76.2165 28.4243L84.955 18.6989H75.8171C75.8171 18.6989 69.5746 27.3996 69.0247 28.4323V9.28525Z" fill="black"/>
<path d="M106.503 33.1138C106.603 32.5225 106.753 31.3881 106.753 30.1052C106.753 24.1522 103.756 18.1083 95.8658 18.1083C87.4258 18.1083 83.5301 24.8392 83.5301 30.9439C83.5301 38.4941 88.2748 43.209 96.5643 43.209C99.861 43.209 102.906 42.7194 105.404 41.6873L104.405 36.632C102.357 37.3169 100.26 37.6601 97.6634 37.6601C94.118 37.6601 91.0223 36.1919 90.7722 33.0643L106.503 33.1124V33.1138V33.1138ZM90.7225 27.9354C90.9221 25.9702 92.2216 23.0707 95.4672 23.0707C98.9125 23.0707 99.7124 26.1662 99.7124 27.9354H90.7231H90.7225ZM125.49 9.28525V20.8594H125.39C124.29 19.2394 121.993 18.1585 118.949 18.1585C113.105 18.1585 107.961 22.874 108.011 30.9299C108.011 38.3972 112.656 43.2605 118.448 43.2605C121.595 43.2605 124.59 41.884 126.089 39.2312H126.239L126.539 42.7201H133.28C133.181 41.0987 133.08 38.2988 133.08 35.5478V9.28458H125.489L125.49 9.28525ZM125.49 32.0603C125.49 32.6489 125.44 33.2395 125.339 33.7291C124.891 35.8427 123.093 37.3149 120.896 37.3149C117.75 37.3149 115.702 34.7612 115.702 30.7332C115.702 26.9515 117.451 23.9054 120.946 23.9054C123.293 23.9054 124.94 25.5261 125.39 27.5394C125.49 27.9829 125.49 28.4745 125.49 28.9159V32.0596V32.0603Z" fill="black"/>
<path d="M155.949 42.692V19.6628H148.358V42.692H155.95H155.949ZM152.155 16.5191C154.802 16.5191 156.449 14.7506 156.449 12.5406C156.4 10.2805 154.802 8.56153 152.206 8.56153C149.607 8.56153 147.911 10.2805 147.911 12.5406C147.911 14.7506 149.558 16.5191 152.105 16.5191H152.154H152.155ZM160.151 42.692H167.741V29.8329C167.741 29.1453 167.791 28.4564 167.991 27.9655C168.54 26.5896 169.789 25.1656 171.886 25.1656C174.632 25.1656 175.732 27.2772 175.732 30.3734V42.692H183.322V29.4878C183.322 22.4145 179.577 19.123 174.583 19.123C170.489 19.123 168.69 21.4306 167.691 23.0024H167.742V19.6634H160.151C160.25 21.8239 160.151 42.6926 160.151 42.6926V42.692Z" fill="white"/>
</g>
<defs>
<clipPath id="clip0">
<rect width="191" height="51" fill="white"/>
</clipPath>
</defs>
</svg>
