<svg width="198" height="53" viewBox="0 0 198 53" fill="none" xmlns="http://www.w3.org/2000/svg">
<path fill-rule="evenodd" clip-rule="evenodd" d="M71.9114 16.4095L72.0776 19.3783C73.9726 17.0821 76.4605 15.9341 79.5401 15.9341C84.8766 15.9341 87.5928 18.9974 87.6874 25.1241V42.0994H81.9335V25.4563C81.9335 23.8261 81.5823 22.6199 80.88 21.8352C80.1776 21.0518 79.0282 20.6601 77.433 20.6601C75.1112 20.6601 73.381 21.7136 72.2464 23.818V42.0994H66.4898V16.4095H71.9142H71.9114ZM104.838 42.5748C101.191 42.5748 98.2335 41.4241 95.9684 39.1211C93.7019 36.8182 92.5687 33.7509 92.5687 29.9203V29.2085C92.5687 26.6449 93.0617 24.3528 94.0491 22.3349C95.0351 20.317 96.4222 18.7462 98.2065 17.621C99.9907 16.4986 101.98 15.9368 104.176 15.9368C107.665 15.9368 110.363 17.0524 112.264 19.2837C114.169 21.5164 115.12 24.6729 115.12 28.7574V31.0846H98.3712C98.5468 33.2052 99.2519 34.8827 100.492 36.1172C101.732 37.3518 103.292 37.969 105.171 37.969C107.807 37.969 109.955 36.902 111.613 34.7639L114.716 37.7326C113.689 39.267 112.32 40.4583 110.607 41.3052C108.893 42.1521 106.971 42.5748 104.84 42.5748H104.838ZM104.152 20.5669C102.572 20.5669 101.298 21.1207 100.327 22.2282C99.3545 23.3358 98.7359 24.8796 98.4671 26.8583H109.435V26.4302C109.308 24.4987 108.794 23.04 107.895 22.0499C106.994 21.0612 105.747 20.5669 104.152 20.5669V20.5669ZM126.796 10.1667V16.4108H131.321V20.6844H126.796V35.0245C126.796 36.0051 126.991 36.7129 127.377 37.1492C127.763 37.5841 128.455 37.8015 129.45 37.8015C130.128 37.7996 130.803 37.7199 131.463 37.5638V42.0278C130.153 42.3925 128.89 42.5735 127.673 42.5735C123.252 42.5735 121.041 40.1288 121.041 35.2379V20.683H116.822V16.4095H121.038V10.1653H126.794L126.796 10.1667ZM141.839 42.1007H136.082V5.63243H141.839V42.1007ZM154.227 42.1007H148.471V16.4108H154.227V42.1007ZM148.115 9.73849C148.115 8.85379 148.395 8.11767 148.956 7.53148C149.517 6.94664 150.318 6.65354 151.36 6.65354C152.402 6.65354 153.207 6.94664 153.777 7.53148C154.345 8.11767 154.628 8.85379 154.628 9.73984C154.628 10.6097 154.345 11.3336 153.777 11.9117C153.207 12.4898 152.402 12.7789 151.36 12.7789C150.318 12.7789 149.517 12.4898 148.956 11.9117C148.395 11.335 148.115 10.6097 148.115 9.73984V9.73849ZM162.518 42.1007V20.683H158.609V16.4095H162.518V14.0593C162.518 11.2094 163.306 9.01047 164.885 7.45854C166.466 5.90796 168.675 5.13268 171.517 5.13268C172.529 5.13268 173.603 5.2745 174.74 5.55949L174.598 10.0708C173.872 9.93594 173.134 9.8726 172.395 9.88166C169.647 9.88166 168.273 11.2972 168.273 14.1309V16.4095H173.484V20.683H168.273V42.0994H162.518V42.1007ZM186.654 33.8386L191.865 16.4108H198L187.816 45.9948C186.252 50.3156 183.599 52.4767 179.856 52.4767C179.019 52.4767 178.095 52.3335 177.085 52.0485V47.5845L178.175 47.6561C179.627 47.6561 180.721 47.3914 181.456 46.8605C182.189 46.3311 182.77 45.441 183.197 44.1902L184.025 41.9819L175.024 16.4108H181.23L186.654 33.8386Z" fill="#0E1E25"/>
<path d="M37.4921 17.9722L37.4732 17.9641C37.4624 17.9601 37.4516 17.956 37.4422 17.9466C37.4267 17.9299 37.4152 17.9099 37.4086 17.8881C37.4021 17.8664 37.4006 17.8434 37.4043 17.8209L38.4484 11.4376L43.3446 16.3352L38.2526 18.5017C38.2384 18.5074 38.2232 18.5101 38.208 18.5098H38.1877C38.181 18.5057 38.1742 18.5003 38.1607 18.4868C37.9712 18.2758 37.7446 18.1014 37.4921 17.9722V17.9722ZM44.594 17.5832L49.8292 22.8185C50.9165 23.9071 51.4608 24.4501 51.6594 25.0795C51.6891 25.1727 51.7134 25.2659 51.7323 25.3618L39.221 20.0631C39.2143 20.0603 39.2075 20.0576 39.2007 20.055C39.1508 20.0347 39.0927 20.0117 39.0927 19.9604C39.0927 19.9091 39.1521 19.8848 39.2021 19.8645L39.2183 19.8578L44.594 17.5832ZM51.5189 27.042C51.2488 27.5499 50.722 28.0766 49.8306 28.9694L43.9281 34.8706L36.2941 33.2808L36.2536 33.2727C36.186 33.2619 36.1144 33.2497 36.1144 33.189C36.0854 32.874 35.9919 32.5685 35.8397 32.2912C35.6875 32.014 35.4799 31.7711 35.2297 31.5776C35.1987 31.5465 35.2068 31.4979 35.2162 31.4533C35.2162 31.4466 35.2162 31.4398 35.2189 31.4344L36.6547 22.6199L36.6601 22.5902C36.6682 22.5227 36.6804 22.4443 36.7412 22.4443C37.0488 22.406 37.3458 22.3069 37.6148 22.1527C37.8838 21.9985 38.1194 21.7923 38.3079 21.5461C38.3201 21.5326 38.3282 21.5177 38.3444 21.5096C38.3876 21.4894 38.439 21.5096 38.4835 21.5286L51.5176 27.042H51.5189ZM42.5707 36.228L32.8647 45.934L34.526 35.7228L34.5287 35.7093C34.5301 35.6958 34.5328 35.6823 34.5368 35.6702C34.5504 35.6377 34.5855 35.6242 34.6192 35.6107L34.6354 35.604C34.9992 35.4488 35.3209 35.2095 35.5742 34.9057C35.6066 34.8679 35.6458 34.8314 35.6957 34.8246C35.7087 34.8225 35.7219 34.8225 35.7349 34.8246L42.5693 36.2293L42.5707 36.228ZM30.8103 47.9883L29.7163 49.0824L17.621 31.6019C17.6166 31.5955 17.6121 31.5892 17.6074 31.583C17.5885 31.5573 17.5683 31.5317 17.5723 31.502C17.5723 31.4804 17.5872 31.4614 17.602 31.4452L17.6155 31.4277C17.652 31.3737 17.6831 31.3196 17.7168 31.2615L17.7439 31.2143L17.7479 31.2102C17.7668 31.1778 17.7844 31.1467 17.8168 31.1292C17.8452 31.1157 17.8843 31.1211 17.9154 31.1278L31.3155 33.8913C31.3529 33.8971 31.3883 33.9125 31.4181 33.9359C31.4357 33.9534 31.4397 33.9724 31.4438 33.994C31.5373 34.3476 31.7112 34.6749 31.9521 34.9502C32.1929 35.2255 32.4942 35.4414 32.8323 35.581C32.8701 35.5999 32.8539 35.6418 32.8363 35.6864C32.8276 35.7059 32.8208 35.7263 32.8161 35.7471C32.6473 36.7737 31.1993 45.6044 30.8103 47.9883ZM28.525 50.2723C27.7186 51.0706 27.2432 51.4934 26.7056 51.6635C26.1756 51.8311 25.6067 51.8311 25.0767 51.6635C24.4473 51.4636 23.903 50.9207 22.8157 49.832L10.669 37.6854L13.8418 32.7648C13.8566 32.7405 13.8715 32.7189 13.8958 32.7014C13.9295 32.6771 13.9782 32.6879 14.0187 32.7014C14.7469 32.9211 15.5288 32.8815 16.2311 32.5893C16.2676 32.5758 16.304 32.5663 16.3324 32.592C16.3466 32.6049 16.3593 32.6194 16.3702 32.6352L28.525 50.2737V50.2723ZM9.49797 36.5143L6.71152 33.7279L12.2142 31.3804C12.2282 31.3743 12.2434 31.3711 12.2588 31.371C12.3047 31.371 12.3317 31.4169 12.356 31.4587C12.4113 31.5438 12.4699 31.6267 12.5316 31.7073L12.5492 31.7289C12.5654 31.7518 12.5546 31.7748 12.5383 31.7964L9.49932 36.5143H9.49797ZM5.47835 32.4947L1.95308 28.9694C1.35338 28.3697 0.918461 27.9348 0.615909 27.5607L11.3349 29.7839C11.3484 29.7864 11.3619 29.7886 11.3754 29.7907C11.4416 29.8015 11.5145 29.8136 11.5145 29.8757C11.5145 29.9433 11.4348 29.9743 11.3673 30L11.3362 30.0135L5.47835 32.4947ZM0 25.7481C0.0122157 25.521 0.0530592 25.2963 0.121561 25.0795C0.321462 24.4501 0.864434 23.9071 1.95308 22.8185L6.46435 18.3072C8.54147 21.3217 10.6242 24.3324 12.7126 27.3392C12.7491 27.3878 12.7896 27.4418 12.7477 27.4823C12.5505 27.6998 12.3533 27.9375 12.2142 28.1955C12.1991 28.2287 12.1759 28.2575 12.1467 28.2792C12.1291 28.2901 12.1102 28.286 12.0899 28.2819H12.0872L0 25.7467V25.7481ZM7.67185 17.0997L13.735 11.0338C14.3064 11.2837 16.3824 12.1602 18.2369 12.9436C19.6416 13.5379 20.922 14.0782 21.3245 14.2538C21.365 14.27 21.4015 14.2862 21.4191 14.3267C21.4299 14.351 21.4245 14.3821 21.4191 14.4078C21.323 14.8456 21.3373 15.3005 21.4606 15.7315C21.5839 16.1624 21.8124 16.556 22.1255 16.8768C22.166 16.9173 22.1255 16.9754 22.0903 17.0254L22.0714 17.0538L15.9123 26.5936C15.8961 26.6206 15.8813 26.6436 15.8543 26.6611C15.8218 26.6814 15.7759 26.6719 15.7381 26.6625C15.4986 26.5997 15.2523 26.5662 15.0047 26.5625C14.7832 26.5625 14.5428 26.6031 14.2996 26.6476H14.2983C14.2713 26.6517 14.247 26.6571 14.2253 26.6409C14.2015 26.6214 14.1809 26.5981 14.1646 26.572L7.6705 17.0997H7.67185ZM14.9628 9.80872L22.8157 1.95587C23.903 0.868578 24.4473 0.324254 25.0767 0.125704C25.6067 -0.0419015 26.1756 -0.0419015 26.7056 0.125704C27.335 0.324254 27.8794 0.868578 28.9667 1.95587L30.6685 3.65773L25.0835 12.3075C25.0696 12.3327 25.0508 12.3547 25.0281 12.3723C24.9943 12.3953 24.947 12.3858 24.9065 12.3723C24.4662 12.2387 23.9999 12.2143 23.548 12.3014C23.0962 12.3885 22.6724 12.5844 22.3132 12.8721C22.2767 12.9099 22.2227 12.8883 22.1768 12.868C21.4474 12.5506 15.7746 10.1531 14.9628 9.80872V9.80872ZM31.8544 4.84362L37.0113 10.0005L35.7687 17.6967V17.7169C35.7676 17.7345 35.7639 17.7518 35.7579 17.7683C35.7444 17.7953 35.7173 17.8007 35.6903 17.8088C35.4246 17.8893 35.1744 18.0139 34.9502 18.1775C34.9405 18.1844 34.9315 18.1921 34.9231 18.2005C34.9083 18.2167 34.8934 18.2315 34.8691 18.2343C34.8493 18.2349 34.8296 18.2317 34.811 18.2248L26.9528 14.8859L26.9379 14.8792C26.888 14.8589 26.8285 14.8346 26.8285 14.7833C26.7823 14.3454 26.6393 13.9232 26.4098 13.5474C26.372 13.4853 26.3301 13.4204 26.3625 13.357L31.8544 4.84362ZM26.5435 16.4676L33.9101 19.5876C33.9507 19.6065 33.9952 19.6241 34.0128 19.666C34.0198 19.6912 34.0198 19.7178 34.0128 19.743C33.9912 19.851 33.9723 19.9739 33.9723 20.0982V20.3048C33.9723 20.3562 33.9196 20.3778 33.871 20.398L33.8561 20.4034C32.6891 20.9018 17.4724 27.3905 17.4494 27.3905C17.4265 27.3905 17.4021 27.3905 17.3792 27.3675C17.3387 27.327 17.3792 27.2703 17.4156 27.219C17.4221 27.2101 17.4284 27.2011 17.4346 27.192L23.4883 17.8182L23.4991 17.802C23.5342 17.7453 23.5747 17.6818 23.6396 17.6818L23.7004 17.6913C23.8381 17.7102 23.9597 17.7277 24.0826 17.7277C25.0011 17.7277 25.852 17.2807 26.3652 16.5162C26.3775 16.4958 26.393 16.4775 26.4112 16.4622C26.4476 16.4351 26.5017 16.4487 26.5435 16.4676V16.4676ZM18.1072 28.8735L34.6935 21.8C34.6935 21.8 34.7178 21.8 34.7408 21.823C34.8313 21.9135 34.9083 21.9743 34.9826 22.031L35.019 22.054C35.0528 22.0729 35.0866 22.0945 35.0893 22.1296C35.0893 22.1431 35.0893 22.1512 35.0866 22.1634L33.6657 30.8915L33.6603 30.9266C33.6508 30.9941 33.6413 31.0711 33.5779 31.0711C33.199 31.0967 32.8322 31.2142 32.509 31.4136C32.1859 31.6129 31.9162 31.888 31.7234 32.2151L31.7166 32.2259C31.6977 32.257 31.6802 32.2867 31.6491 32.3029C31.6207 32.3164 31.5843 32.311 31.5546 32.3043L18.3274 29.5759C18.3138 29.5732 18.1221 28.8749 18.1072 28.8735V28.8735Z" fill="url(#paint0_radial)"/>
<defs>
<radialGradient id="paint0_radial" cx="0" cy="0" r="1" gradientUnits="userSpaceOnUse" gradientTransform="translate(-1.73688 25.1639) rotate(90) scale(51.7323 59.7268)">
<stop stop-color="#20C6B7"/>
<stop offset="1" stop-color="#4D9ABF"/>
</radialGradient>
</defs>
</svg>
