<svg width="202" height="52" viewBox="0 0 202 52" fill="none" xmlns="http://www.w3.org/2000/svg">
<path d="M90.1516 23.3326H78.607C78.4639 23.3327 78.3268 23.3896 78.2256 23.4907C78.1244 23.5919 78.0676 23.7291 78.0675 23.8721V29.5166C78.0676 29.6597 78.1244 29.797 78.2255 29.8983C78.3267 29.9996 78.4639 30.0566 78.607 30.0569H83.1106V37.0693C83.1106 37.0693 82.0993 37.4143 79.3036 37.4143C76.0052 37.4143 71.3975 36.2088 71.3975 26.0769C71.3975 15.9429 76.1955 14.6092 80.6999 14.6092C84.599 14.6092 86.2788 15.2961 87.3476 15.6265C87.6834 15.7295 87.9941 15.3954 87.9941 15.097L89.2819 9.64366C89.2819 9.50435 89.2347 9.33614 89.0757 9.222C88.6417 8.91247 85.9936 7.43063 79.3036 7.43063C71.5966 7.43063 63.6911 10.7098 63.6911 26.4719C63.6911 42.2352 72.7423 44.5838 80.3695 44.5838C86.6847 44.5838 90.5158 41.885 90.5158 41.885C90.6737 41.7975 90.6908 41.5769 90.6908 41.4756V23.8719C90.6908 23.5743 90.4494 23.3326 90.1516 23.3326ZM149.648 9.31926C149.648 9.24842 149.635 9.17815 149.608 9.1125C149.582 9.04686 149.542 8.98712 149.493 8.93672C149.443 8.88632 149.384 8.84625 149.318 8.81882C149.253 8.79139 149.183 8.77714 149.112 8.77687H142.611C142.54 8.77714 142.47 8.79138 142.405 8.81877C142.339 8.84617 142.28 8.8862 142.23 8.93656C142.18 8.98693 142.14 9.04665 142.113 9.11231C142.086 9.17797 142.073 9.24829 142.073 9.31926L142.075 21.8814H131.942V9.31926C131.943 9.24839 131.93 9.17811 131.903 9.11246C131.876 9.04681 131.837 8.98708 131.787 8.93668C131.737 8.88629 131.678 8.84623 131.612 8.81881C131.547 8.79139 131.477 8.77714 131.406 8.77687H124.906C124.763 8.77763 124.626 8.83519 124.525 8.9369C124.425 9.03861 124.368 9.17614 124.369 9.31926V43.3339C124.369 43.6337 124.61 43.8778 124.906 43.8778H131.406C131.703 43.8778 131.942 43.6335 131.942 43.3339V28.7845H142.075L142.057 43.3339C142.057 43.6337 142.298 43.8778 142.596 43.8778H149.111C149.409 43.8778 149.647 43.6335 149.648 43.3339V9.31926V9.31926ZM102.418 13.7831C102.418 11.4422 100.541 9.55069 98.2262 9.55069C95.9133 9.55069 94.0353 11.4422 94.0353 13.7831C94.0353 16.1211 95.9133 18.0175 98.2262 18.0175C100.541 18.0175 102.418 16.1211 102.418 13.7831ZM101.953 36.1588V20.4576C101.953 20.3145 101.897 20.177 101.796 20.0754C101.695 19.9738 101.558 19.9163 101.415 19.9155H94.9355C94.6383 19.9155 94.3722 20.2222 94.3722 20.5206V43.0153C94.3722 43.6767 94.7842 43.8729 95.3174 43.8729H101.156C101.796 43.8729 101.953 43.5582 101.953 43.005V36.1588V36.1588ZM174.352 19.9667H167.901C167.605 19.9667 167.364 20.2105 167.364 20.5105V37.1889C167.364 37.1889 165.725 38.3881 163.4 38.3881C161.074 38.3881 160.457 37.3328 160.457 35.0554V20.5105C160.457 20.2105 160.216 19.9667 159.921 19.9667H153.374C153.078 19.9667 152.836 20.2105 152.836 20.5105V36.1565C152.836 42.9209 156.606 44.5758 161.793 44.5758C166.048 44.5758 169.478 42.2254 169.478 42.2254C169.478 42.2254 169.641 43.4638 169.715 43.6109C169.789 43.7573 169.982 43.9052 170.19 43.9052L174.355 43.8869C174.65 43.8869 174.892 43.6426 174.892 43.344L174.89 20.5108C174.89 20.2105 174.649 19.9667 174.352 19.9667V19.9667ZM189.437 38.3675C187.2 38.2994 185.682 37.2839 185.682 37.2839V26.5125C185.682 26.5125 187.179 25.5948 189.016 25.4306C191.339 25.2227 193.577 25.9244 193.577 31.4653C193.578 37.3085 192.568 38.4616 189.437 38.3675V38.3675ZM191.982 19.2029C188.318 19.2029 185.826 20.8375 185.826 20.8375V9.31954C185.826 9.01917 185.586 8.77687 185.29 8.77687H178.771C178.7 8.77721 178.63 8.79152 178.565 8.81898C178.499 8.84643 178.44 8.88651 178.39 8.9369C178.34 8.9873 178.301 9.04703 178.274 9.11268C178.247 9.17834 178.233 9.24863 178.234 9.31954V43.3339C178.234 43.6337 178.475 43.8778 178.772 43.8778H183.295C183.498 43.8778 183.653 43.7728 183.766 43.5891C183.879 43.4063 184.041 42.0209 184.041 42.0209C184.041 42.0209 186.707 44.5469 191.753 44.5469C197.676 44.5469 201.074 41.542 201.074 31.0576C201.074 20.5729 195.648 19.2029 191.982 19.2029V19.2029ZM120.635 19.9127H115.759L115.752 13.4707C115.752 13.227 115.626 13.1051 115.344 13.1051H108.7C108.441 13.1051 108.303 13.2189 108.303 13.467V20.1241C108.303 20.1241 104.973 20.9276 104.748 20.9929C104.635 21.0254 104.537 21.0936 104.466 21.187C104.396 21.2805 104.358 21.3943 104.358 21.5112V25.6944C104.358 25.9953 104.599 26.2374 104.896 26.2374H108.303V36.3007C108.303 43.7756 113.546 44.51 117.084 44.51C118.7 44.51 120.634 43.991 120.953 43.8726C121.147 43.8017 121.259 43.6017 121.259 43.3849L121.264 38.7832C121.264 38.4828 121.011 38.2405 120.725 38.2405C120.441 38.2405 119.714 38.3561 118.966 38.3561C116.571 38.3561 115.759 37.2424 115.759 35.8009L115.759 26.2371H120.635C120.933 26.2371 121.173 25.9948 121.173 25.6941V20.4542C121.173 20.3833 121.16 20.313 121.133 20.2474C121.106 20.1818 121.067 20.1221 121.017 20.0718C120.967 20.0215 120.907 19.9816 120.842 19.9543C120.776 19.9269 120.706 19.9128 120.635 19.9127" fill="#121110"/>
<path d="M26.5381 0C11.8834 0 0 11.8813 0 26.5381C0 38.2635 7.60395 48.211 18.1484 51.7201C19.4746 51.9657 19.9617 51.1444 19.9617 50.4435C19.9617 49.8107 19.9369 47.72 19.9257 45.5026C12.5425 47.1079 10.9847 42.3714 10.9847 42.3714C9.77749 39.3039 8.03812 38.4885 8.03812 38.4885C5.63043 36.8413 8.21961 36.875 8.21961 36.875C10.8846 37.0623 12.2878 39.6099 12.2878 39.6099C14.6547 43.667 18.496 42.494 20.0104 41.8161C20.2485 40.1007 20.9364 38.9301 21.6952 38.2674C15.8009 37.5962 9.60432 35.3207 9.60432 25.1521C9.60432 22.2549 10.641 19.8874 12.3388 18.0289C12.0632 17.3604 11.1549 14.6613 12.5958 11.0059C12.5958 11.0059 14.8243 10.2926 19.8957 13.7262C22.0124 13.138 24.2827 12.8433 26.5381 12.8333C28.7934 12.8433 31.0654 13.138 33.1863 13.7262C38.2516 10.2926 40.477 11.0059 40.477 11.0059C41.9214 14.6613 41.0127 17.3604 40.7371 18.0289C42.4386 19.8874 43.4683 22.2547 43.4683 25.1521C43.4683 35.3448 37.2601 37.5893 31.3507 38.2462C32.3025 39.0698 33.1507 40.6849 33.1507 43.1607C33.1507 46.7114 33.1199 49.5693 33.1199 50.4435C33.1199 51.1497 33.5975 51.9772 34.9429 51.7166C45.4816 48.2035 53.0759 38.2595 53.0759 26.5381C53.0759 11.8813 41.1942 0 26.5381 0Z" fill="#161614"/>
<path d="M9.93942 37.8041C9.88114 37.9359 9.67342 37.9754 9.48465 37.8851C9.29212 37.7985 9.18389 37.6187 9.24633 37.4863C9.30357 37.3506 9.51129 37.3127 9.7034 37.4039C9.89634 37.4903 10.0062 37.6718 9.93942 37.8041V37.8041ZM11.2448 38.9688C11.1183 39.0862 10.8708 39.0317 10.7029 38.8463C10.5293 38.6612 10.4968 38.414 10.6252 38.2947C10.7557 38.1775 10.9957 38.2323 11.1697 38.4175C11.3433 38.6046 11.377 38.8504 11.2446 38.969L11.2448 38.9688ZM12.1404 40.4591C11.9777 40.5721 11.7117 40.4662 11.5475 40.2301C11.3849 39.9943 11.3849 39.7113 11.551 39.5978C11.7158 39.4844 11.9777 39.5864 12.1442 39.8205C12.3065 40.0605 12.3065 40.3436 12.1402 40.4593L12.1404 40.4591ZM13.6548 42.1851C13.5093 42.3454 13.1996 42.3025 12.9728 42.0836C12.7409 41.8696 12.6762 41.5659 12.8221 41.4055C12.9692 41.2448 13.2808 41.2899 13.5093 41.507C13.7397 41.7206 13.8101 42.0265 13.655 42.1851H13.6548ZM15.6121 42.7679C15.5482 42.9756 15.2497 43.0701 14.9492 42.9819C14.6491 42.8909 14.4526 42.6474 14.5132 42.4374C14.5756 42.2282 14.8753 42.1298 15.1781 42.2243C15.4779 42.3148 15.6747 42.5564 15.6123 42.7679H15.6121ZM17.84 43.015C17.8475 43.2339 17.5925 43.4154 17.277 43.4194C16.9596 43.4262 16.7029 43.2491 16.6996 43.0339C16.6996 42.8129 16.9487 42.633 17.2659 42.6278C17.5815 42.6216 17.84 42.7975 17.84 43.015V43.015ZM20.0283 42.9311C20.0662 43.1446 19.8468 43.364 19.5335 43.4223C19.2255 43.4785 18.9404 43.3467 18.901 43.135C18.8627 42.9161 19.0863 42.6969 19.3937 42.6401C19.7075 42.5856 19.9883 42.714 20.0283 42.9311" fill="#161614"/>
</svg>
