<svg width="198" height="48" viewBox="0 0 198 48" fill="none" xmlns="http://www.w3.org/2000/svg">
<path d="M60.5116 19.1703C62.7769 19.1703 64.6131 17.36 64.6131 15.1272C64.6131 12.8941 62.7769 11.0842 60.5116 11.0842C58.2463 11.0842 56.4101 12.8941 56.4101 15.1272C56.4101 17.36 58.2463 19.1703 60.5116 19.1703V19.1703ZM195.873 32.984C195.249 32.5516 194.768 32.48 194.368 33.3196C187.479 48.0229 175.871 40.6857 177.024 41.3314C179.599 40.1707 186.371 34.8183 185.347 27.4278C184.726 22.9112 180.792 20.9078 176.617 21.6251C169.328 22.8773 166.647 30.6244 168.012 37.483C168.251 38.6609 168.678 39.6324 169.104 40.584C160.868 47.1844 157.597 34.6754 157.226 33.1806C157.211 33.1006 163.585 27.8648 165.358 15.3882C167.216 2.31201 162.984 -0.0689454 158.655 0.00534031C150.645 0.142864 148.481 16.6347 151.389 30.3794C151.145 30.4419 150.012 31.0606 148.191 31.1299C146.88 27.0663 141.281 23.5044 139.815 24.877C136.147 28.3105 140.705 35.0232 143.911 35.5497C141.985 47.2415 129.938 44.3459 132.181 29.6979C136.104 22.5189 139.087 11.8442 138.555 5.40001C138.366 3.11848 136.655 0.0617212 132.783 0.21334C125.338 0.503626 124.528 17 125.401 28.7082C125.358 28.4198 124.943 30.1307 121.892 30.9813C121.17 27.0335 114.72 23.0709 113.202 24.976C110.359 28.5417 115.285 34.8994 117.619 35.3429C115.692 47.0343 103.646 44.1387 105.888 29.4907C109.811 22.312 112.795 11.6373 112.262 5.19315C112.074 2.91124 110.362 -0.145517 106.491 0.00572126C99.045 0.296388 98.2355 16.7928 99.1084 28.501C99.0647 28.208 98.6407 29.9752 95.465 30.8118C95.3587 25.6899 88.8848 23.3413 87.3296 24.9756C84.5579 27.8888 87.9643 33.8659 91.1157 35.3429C89.1894 47.0343 77.143 44.1387 79.3855 29.4907C83.3085 22.312 86.292 11.6373 85.7593 5.19315C85.5711 2.91124 83.8593 -0.145517 79.9878 0.00572126C72.5424 0.296388 71.9433 17.6221 72.8161 29.3299C70.3637 39.6846 62.1394 52.6156 63.2079 26.712C63.3134 24.8949 63.4286 24.205 62.5094 23.5246C61.8205 22.9958 60.2541 23.2503 59.3979 23.2712C58.3572 23.3124 58.0963 23.9124 57.8663 24.8194C57.3305 27.1615 57.2342 29.432 57.1577 32.5299C57.1074 33.979 56.9895 34.6552 56.4232 36.6312C55.8576 38.6069 52.6309 42.2179 50.8643 41.6141C48.4134 40.7836 49.2175 33.9653 49.6768 29.2808C50.0595 25.5787 48.834 23.9162 45.6943 23.3116C43.8561 22.9341 42.7393 22.992 40.825 22.3973C39.0147 21.835 38.6053 18.4606 34.7443 19.5851C32.6324 20.2008 33.9901 24.6103 33.4825 27.8785C30.9872 43.955 25.7951 44.3966 23.3864 36.587C34.2348 10.4038 26.5246 0.0815308 22.0114 0.0815308C17.3107 0.0815308 11.9373 3.27239 14.2127 23.6884C13.1063 23.3703 12.7661 23.1989 11.555 23.1989C4.70536 23.1989 0.0386658 28.6556 0.0386658 35.387C0.0386658 42.1185 4.70574 47.5756 11.5554 47.5756C15.5989 47.5756 18.4379 45.7634 20.588 42.96C21.9909 44.9398 23.6992 47.6061 26.823 47.4861C36.1344 47.1288 38.8423 28.3063 39.162 27.2564C40.1574 27.4076 41.0991 27.6937 42.0184 27.845C43.55 28.0716 43.6613 28.669 43.6265 30.187C43.2206 42.9886 45.6178 47.4709 51.0553 47.4709C54.0848 47.4709 56.785 44.5375 58.6452 42.44C60.0345 45.2659 62.2484 47.3844 65.2185 47.4705C72.4153 47.6469 75.1707 36.3429 74.9195 37.8305C74.7223 38.9977 77.2544 47.4069 84.6634 47.4373C93.841 47.4754 95.5469 37.5295 95.7503 35.8636C95.7758 35.5322 95.787 35.5665 95.7503 35.8636L95.7433 35.9646C98.6569 35.4305 100.16 33.891 100.16 33.891C100.16 33.891 102.5 47.592 111.166 47.4377C120.165 47.2769 121.862 38.2865 122.085 36.5333C122.114 36.1173 122.132 36.1661 122.085 36.5333C122.084 36.5505 122.083 36.5676 122.082 36.5848C125.543 35.344 126.453 34.0987 126.453 34.0987C126.453 34.0987 128.312 47.5272 137.459 47.6446C145.609 47.7497 148.63 39.5246 148.648 36.0819C150.022 36.0964 152.565 35.2781 152.506 35.2316C152.506 35.2316 155.491 46.9726 163.828 47.5756C167.743 47.8587 170.679 45.4049 172.353 44.2857C176.287 47.4251 189.386 51.435 197.657 37.616C198.824 35.6328 196.314 33.2899 195.873 32.984V32.984ZM11.2249 43.0171C7.22851 43.0171 4.66593 39.3756 4.66593 35.4491C4.66593 31.523 7.01821 27.8815 11.0146 27.8815C12.8129 27.8815 13.8134 28.0766 15.2139 29.277C15.4679 30.2632 16.1877 32.5383 16.5379 33.5714C17.0072 34.9539 17.5654 36.1307 18.1283 37.4114C17.3242 40.6964 14.6882 43.0171 11.2249 43.0171V43.0171ZM20.9634 29.3924C20.7972 29.1314 20.832 29.2918 20.646 29.0453C19.9135 27.0815 18.5017 22.6983 18.3382 17.7196C18.1534 12.0876 19.1059 5.4861 21.914 5.4861C23.8167 5.4861 25.8388 18.8651 20.963 29.3924H20.9634ZM77.2331 23.5242C76.7824 20.1821 76.7588 5.28305 80.3883 5.69334C82.3923 6.49334 79.1176 20.5524 77.2331 23.5242ZM103.736 23.5242C103.285 20.1821 103.262 5.28305 106.891 5.69334C108.895 6.49334 105.621 20.5524 103.736 23.5242ZM130.029 23.7318C129.578 20.3893 129.554 5.49029 133.184 5.90058C135.187 6.70058 131.913 20.76 130.029 23.7318ZM159.056 4.82134C162.374 4.48229 162.237 18.7627 155.576 27.7783C154.717 24.5196 153.4 5.9402 159.056 4.82096V4.82134ZM173.003 35.5497C171.937 30.2442 174.691 26.7596 177.53 26.3775C178.523 26.2213 179.961 26.8549 180.247 28.0392C180.719 30.2712 180.179 33.5821 173.825 37.7829C173.834 37.8187 173.241 36.7314 173.003 35.5497H173.003Z" fill="black"/>
</svg>
