<svg width="1440" height="320" viewBox="0 0 1440 320" fill="none" xmlns="http://www.w3.org/2000/svg">
<g clip-path="url(#clip0)">
<path d="M0 160L40 186.7C80 213 160 267 240 277.3C320 288 400 256 480 213.3C560 171 640 117 720 117.3C800 117 880 171 960 197.3C1040 224 1120 224 1200 240C1280 256 1360 288 1400 304L1440 320H1400C1360 320 1280 320 1200 320C1120 320 1040 320 960 320C880 320 800 320 720 320C640 320 560 320 480 320C400 320 320 320 240 320C160 320 80 320 40 320H0V160Z" fill="url(#paint0_linear)"/>
</g>
<defs>
<linearGradient id="paint0_linear" x1="720" y1="117.299" x2="720" y2="320" gradientUnits="userSpaceOnUse">
<stop stop-color="#2DA6F4"/>
<stop offset="1" stop-color="#2DA6F4" stop-opacity="0"/>
</linearGradient>
<clipPath id="clip0">
<rect width="1440" height="320" fill="white"/>
</clipPath>
</defs>
</svg>
