<?xml version="1.0" standalone="no"?>
<svg viewBox="0 0 200 200" xmlns="http://www.w3.org/2000/svg">
  <path fill="#2DA6F4" d="M36.3,-65.4C44.8,-57.9,47.9,-43.7,53.4,-31.7C58.9,-19.6,66.8,-9.8,69.7,1.7C72.6,13.2,70.6,26.4,62.6,34.1C54.7,41.9,40.7,44.1,29.3,48.4C17.9,52.7,8.9,58.9,-2.5,63.2C-13.9,67.4,-27.7,69.7,-38.2,64.9C-48.8,60.1,-56,48.3,-64,36.3C-72.1,24.3,-81.1,12.2,-83.4,-1.3C-85.7,-14.8,-81.3,-29.6,-72.8,-40.9C-64.3,-52.1,-51.6,-59.8,-38.8,-64.8C-26,-69.8,-13,-72.1,0.4,-72.9C13.9,-73.7,27.8,-72.9,36.3,-65.4Z" transform="translate(100 100)" />
</svg>
