<svg width="487" height="487" viewBox="0 0 487 487" fill="none" xmlns="http://www.w3.org/2000/svg">
<circle cx="243.5" cy="243.5" r="243.5" fill="#2DA6F4"/>
<path d="M189.43 123.005H334.074C335.06 123.005 335.552 123.005 336.044 123.087C338.607 123.516 340.827 125.934 341.035 128.525C341.075 129.021 341.041 129.422 340.972 130.225V130.225C336.457 182.907 282.447 193.641 254.859 192.221H189.43C154.341 190.994 130.847 200.898 117.386 210.779L117.386 210.779C113.659 213.515 111.795 214.883 111.214 215.144C107.491 216.814 104.228 215.337 103.025 211.438C102.837 210.829 102.691 209.165 102.399 205.837C96.5563 139.31 156.323 122.662 189.43 123.005Z" fill="white"/>
<path d="M366.444 238.369L291.235 291.03C290.388 291.623 289.964 291.92 289.524 292.132C287.181 293.258 284.114 292.63 282.404 290.672C282.083 290.304 281.84 289.912 281.354 289.128L281.353 289.128C253.45 244.155 276.127 215.132 291.682 205.98L326.63 181.509C340.836 172.659 348.321 161.244 351.912 150.608L351.912 150.608C354.442 143.11 355.708 139.361 356.053 138.794C358.441 134.865 361.83 134.379 365.225 137.479C365.716 137.927 367.359 140.276 370.645 144.974C404.607 193.533 383.495 226.829 366.444 238.369Z" fill="white"/>
<path d="M312.718 364.089H192.9C191.927 364.089 191.44 364.089 190.946 364.006C188.383 363.576 186.147 361.122 185.956 358.53C185.919 358.031 185.955 357.644 186.027 356.872C190.283 311.151 235.051 301.808 257.987 303.053H312.718C339.857 304.054 358.705 296.663 370.292 288.655L370.293 288.655C374.493 285.752 376.593 284.301 377.184 284.057C381.018 282.469 384.179 284.021 385.268 288.026C385.436 288.642 385.531 290.424 385.721 293.986C388.722 350.204 339.944 364.386 312.718 364.089Z" fill="white"/>
<path d="M102 284.942C102 325.985 130.366 359.731 166.686 363.703C167.377 363.778 167.723 363.816 168.227 363.786C170.822 363.633 173.354 361.363 173.789 358.8C173.873 358.302 173.873 357.832 173.873 356.893V212.991C173.873 212.052 173.873 211.582 173.789 211.084C173.354 208.521 170.822 206.251 168.227 206.098C167.723 206.068 167.377 206.106 166.686 206.181C130.366 210.153 102 243.899 102 284.942Z" fill="white"/>
<path d="M192.89 283.666C228.894 279.993 259.093 249.181 262.677 212.981C262.749 212.248 262.785 211.882 262.751 211.381C262.574 208.788 260.325 206.306 257.762 205.874C257.267 205.791 256.789 205.791 255.832 205.791H192.9C191.786 205.791 191.228 205.791 190.762 205.864C188.194 206.271 186.181 208.285 185.774 210.852C185.7 211.318 185.7 211.876 185.7 212.991V276.832C185.7 277.783 185.7 278.259 185.784 278.755C186.217 281.318 188.713 283.573 191.307 283.743C191.809 283.776 192.169 283.739 192.89 283.666Z" fill="white"/>
</svg>
