<svg width="721" height="200" viewBox="0 0 721 200" fill="none" xmlns="http://www.w3.org/2000/svg">
<circle cx="100" cy="100" r="100" fill="white"/>
<path d="M77.7949 50.5155H132.954C133.669 50.5155 134.026 50.5155 134.558 50.6122C137.116 51.0772 139.602 54.2056 139.478 56.802C139.452 57.3423 139.427 57.451 139.377 57.6685C135.202 75.6935 115.222 79.4843 104.665 78.9409H77.7949C69.3739 78.6464 62.579 79.9129 57.2823 81.8264C51.8635 83.7839 49.1542 84.7627 48.5236 84.8486C44.481 85.399 41.7778 83.0756 41.7148 78.9962C41.705 78.3599 41.9727 77.0104 42.5083 74.3114L42.5083 74.3114C46.251 55.4493 66.0839 50.3942 77.7949 50.5155Z" fill="#2DA6F4"/>
<path d="M150.49 97.8927L123.08 117.086C122.359 117.591 121.998 117.843 121.53 118.063C119.177 119.167 115.681 118.277 114.143 116.181C113.837 115.764 113.717 115.521 113.476 115.036C105.348 98.6747 113.837 88.0925 119.787 84.5912L134.14 74.5415C134.487 74.3248 134.825 74.1044 135.154 73.8806L135.154 73.8804C144.315 67.6365 148.895 64.5145 149.429 64.2855C153.654 62.4731 155.32 63.1135 157.244 67.289C157.487 67.8166 157.944 69.6971 158.86 73.4582C161.872 85.8412 155.717 94.3557 150.49 97.8927Z" fill="#2DA6F4"/>
<path d="M128.426 149.523H83.463C82.7971 149.523 82.4642 149.523 81.9254 149.424C79.369 148.953 76.8489 145.708 77.0259 143.115C77.0632 142.568 77.0785 142.508 77.109 142.389C80.9902 127.204 97.2733 123.986 105.949 124.457H128.426C133.83 124.656 138.433 124.046 142.284 122.989L142.284 122.988C148.449 121.297 151.531 120.451 152.174 120.416C156.318 120.191 158.829 122.78 158.477 126.915C158.423 127.556 158.028 128.84 157.238 131.408C152.843 145.692 137.634 149.624 128.426 149.523Z" fill="#2DA6F4"/>
<path d="M41.8892 117.019C41.8892 132.27 51.4254 145.067 64.289 148.574C64.3369 148.587 64.3609 148.593 64.9116 148.639C67.5021 148.853 70.8301 146.311 71.3049 143.755C71.4058 143.212 71.4058 142.916 71.4058 142.325V91.7136C71.4058 91.1223 71.4058 90.8266 71.3049 90.2832C70.8301 87.7276 67.5021 85.1855 64.9116 85.3996C64.3609 85.4451 64.3369 85.4517 64.289 85.4647C51.4254 88.9717 41.8892 101.769 41.8892 117.019Z" fill="#2DA6F4"/>
<path d="M83.392 115.763C94.9202 112.882 104.353 103.267 107.165 91.6468C107.205 91.4798 107.225 91.3962 107.256 90.8532C107.403 88.258 104.902 85.0789 102.345 84.6114C101.81 84.5136 101.48 84.5136 100.821 84.5136H83.463C82.3482 84.5136 81.7908 84.5136 81.3244 84.5875C78.757 84.9941 76.7435 87.0076 76.3369 89.575C76.263 90.0414 76.263 90.5988 76.263 91.7136V109.446C76.263 110.086 76.263 110.407 76.3616 110.944C76.831 113.5 80.0487 116.013 82.6428 115.848C83.1879 115.814 83.2559 115.797 83.392 115.763Z" fill="#2DA6F4"/>
<path d="M289.121 108.947H260.996V138H246.348V66.9062H292.637V78.7715H260.996V97.1309H289.121V108.947ZM331.895 123.352H306.211L301.328 138H285.752L312.217 66.9062H325.791L352.402 138H336.826L331.895 123.352ZM310.166 111.486H327.939L319.004 84.875L310.166 111.486ZM416.855 138H402.207L373.691 91.2227V138H359.043V66.9062H373.691L402.256 113.781V66.9062H416.855V138ZM470.664 123.352H444.98L440.098 138H424.521L450.986 66.9062H464.561L491.172 138H475.596L470.664 123.352ZM448.936 111.486H466.709L457.773 84.875L448.936 111.486ZM513.34 126.232H549.18V138H495.029V129.406L530.186 78.7715H495.078V66.9062H548.398V75.3047L513.34 126.232ZM574.033 138H559.385V66.9062H574.033V138ZM646.055 104.064C646.055 111.063 644.818 117.199 642.344 122.473C639.87 127.746 636.322 131.815 631.699 134.68C627.109 137.544 621.836 138.977 615.879 138.977C609.987 138.977 604.73 137.561 600.107 134.729C595.485 131.896 591.904 127.86 589.365 122.619C586.826 117.346 585.54 111.291 585.508 104.455V100.939C585.508 93.9408 586.761 87.7884 589.268 82.4824C591.807 77.1439 595.371 73.0586 599.961 70.2266C604.583 67.362 609.857 65.9297 615.781 65.9297C621.706 65.9297 626.963 67.362 631.553 70.2266C636.175 73.0586 639.74 77.1439 642.246 82.4824C644.785 87.7884 646.055 93.9245 646.055 100.891V104.064ZM631.211 100.842C631.211 93.3874 629.876 87.7233 627.207 83.8496C624.538 79.9759 620.729 78.0391 615.781 78.0391C610.866 78.0391 607.074 79.9596 604.404 83.8008C601.735 87.6094 600.384 93.2083 600.352 100.598V104.064C600.352 111.324 601.686 116.955 604.355 120.959C607.025 124.963 610.866 126.965 615.879 126.965C620.794 126.965 624.57 125.044 627.207 121.203C629.844 117.329 631.178 111.698 631.211 104.309V100.842ZM714.512 138H699.863L671.348 91.2227V138H656.699V66.9062H671.348L699.912 113.781V66.9062H714.512V138Z" fill="white"/>
</svg>
