<svg width="721" height="200" viewBox="0 0 721 200" fill="none" xmlns="http://www.w3.org/2000/svg">
<circle cx="100" cy="100" r="100" fill="#2DA6F4"/>
<path d="M77.7948 50.5155H132.954C133.669 50.5155 134.026 50.5155 134.558 50.6122C137.116 51.0772 139.602 54.2056 139.478 56.8019C139.452 57.3423 139.427 57.451 139.377 57.6685C135.202 75.6935 115.222 79.4843 104.665 78.9409H77.7948C69.3738 78.6464 62.5789 79.9129 57.2822 81.8264C51.8635 83.7839 49.1541 84.7627 48.5235 84.8486C44.4809 85.399 41.7778 83.0756 41.7147 78.9962C41.7049 78.3599 41.9727 77.0104 42.5082 74.3114L42.5082 74.3114C46.2509 55.4493 66.0838 50.3942 77.7948 50.5155Z" fill="white"/>
<path d="M150.49 97.8927L123.08 117.086C122.359 117.591 121.998 117.843 121.53 118.063C119.177 119.167 115.681 118.277 114.143 116.181C113.837 115.764 113.717 115.521 113.476 115.036C105.348 98.6747 113.837 88.0925 119.787 84.5912L134.14 74.5415C134.487 74.3248 134.825 74.1044 135.154 73.8806C144.315 67.6365 148.895 64.5145 149.429 64.2855C153.654 62.4731 155.32 63.1135 157.244 67.289C157.487 67.8166 157.944 69.6971 158.859 73.4581L158.859 73.4582C161.872 85.8412 155.717 94.3557 150.49 97.8927Z" fill="white"/>
<path d="M128.426 149.523H83.463C82.7971 149.523 82.4641 149.523 81.9254 149.424C79.369 148.953 76.8489 145.708 77.0259 143.115C77.0632 142.568 77.0785 142.508 77.109 142.389C80.9902 127.204 97.2733 123.986 105.949 124.457H128.426C133.83 124.656 138.433 124.045 142.284 122.989L142.284 122.988C148.449 121.296 151.531 120.45 152.174 120.416C156.318 120.191 158.828 122.78 158.477 126.915C158.423 127.556 158.028 128.84 157.238 131.408C152.843 145.692 137.634 149.624 128.426 149.523Z" fill="white"/>
<path d="M41.8891 117.019C41.8891 132.27 51.4253 145.067 64.2889 148.574C64.3368 148.587 64.3608 148.593 64.9116 148.639C67.5021 148.853 70.83 146.311 71.3048 143.755C71.4058 143.212 71.4058 142.916 71.4058 142.325V91.7136C71.4058 91.1222 71.4058 90.8266 71.3048 90.2832C70.83 87.7276 67.5021 85.1855 64.9116 85.3996C64.3608 85.4451 64.3368 85.4517 64.2889 85.4647C51.4253 88.9717 41.8891 101.769 41.8891 117.019Z" fill="white"/>
<path d="M83.3919 115.763C94.9201 112.882 104.353 103.267 107.165 91.6468C107.205 91.4797 107.225 91.3962 107.256 90.8531C107.403 88.258 104.902 85.0789 102.345 84.6114C101.81 84.5136 101.48 84.5136 100.821 84.5136H83.4629C82.3481 84.5136 81.7907 84.5136 81.3243 84.5875C78.757 84.9941 76.7434 87.0076 76.3368 89.575C76.2629 90.0414 76.2629 90.5988 76.2629 91.7136V109.446C76.2629 110.086 76.2629 110.407 76.3616 110.944C76.831 113.5 80.0486 116.013 82.6427 115.848C83.1879 115.814 83.2559 115.797 83.3919 115.763Z" fill="white"/>
<path d="M289.121 104.947H260.996V134H246.348V62.9062H292.637V74.7715H260.996V93.1309H289.121V104.947ZM331.895 119.352H306.211L301.328 134H285.752L312.217 62.9062H325.791L352.402 134H336.826L331.895 119.352ZM310.166 107.486H327.939L319.004 80.875L310.166 107.486ZM416.855 134H402.207L373.691 87.2227V134H359.043V62.9062H373.691L402.256 109.781V62.9062H416.855V134ZM470.664 119.352H444.98L440.098 134H424.521L450.986 62.9062H464.561L491.172 134H475.596L470.664 119.352ZM448.936 107.486H466.709L457.773 80.875L448.936 107.486ZM513.34 122.232H549.18V134H495.029V125.406L530.186 74.7715H495.078V62.9062H548.398V71.3047L513.34 122.232ZM574.033 134H559.385V62.9062H574.033V134ZM646.055 100.064C646.055 107.063 644.818 113.199 642.344 118.473C639.87 123.746 636.322 127.815 631.699 130.68C627.109 133.544 621.836 134.977 615.879 134.977C609.987 134.977 604.73 133.561 600.107 130.729C595.485 127.896 591.904 123.86 589.365 118.619C586.826 113.346 585.54 107.291 585.508 100.455V96.9395C585.508 89.9408 586.761 83.7884 589.268 78.4824C591.807 73.1439 595.371 69.0586 599.961 66.2266C604.583 63.362 609.857 61.9297 615.781 61.9297C621.706 61.9297 626.963 63.362 631.553 66.2266C636.175 69.0586 639.74 73.1439 642.246 78.4824C644.785 83.7884 646.055 89.9245 646.055 96.8906V100.064ZM631.211 96.8418C631.211 89.3874 629.876 83.7233 627.207 79.8496C624.538 75.9759 620.729 74.0391 615.781 74.0391C610.866 74.0391 607.074 75.9596 604.404 79.8008C601.735 83.6094 600.384 89.2083 600.352 96.5977V100.064C600.352 107.324 601.686 112.955 604.355 116.959C607.025 120.963 610.866 122.965 615.879 122.965C620.794 122.965 624.57 121.044 627.207 117.203C629.844 113.329 631.178 107.698 631.211 100.309V96.8418ZM714.512 134H699.863L671.348 87.2227V134H656.699V62.9062H671.348L699.912 109.781V62.9062H714.512V134Z" fill="#2DA6F4"/>
</svg>
